<?xml version="1.0" encoding="UTF-8" standalone="no"?>
<!DOCTYPE svg PUBLIC "-//W3C//DTD SVG 1.1//EN" "http://www.w3.org/Graphics/SVG/1.1/DTD/svg11.dtd">
<svg xmlns="http://www.w3.org/2000/svg" version="1.1" viewBox="0 0 128 128">
<path fill="#ffffff" d="
  M 123.89 64.00
  A 59.89 59.89 0.0 0 1 64.00 123.89
  A 59.89 59.89 0.0 0 1 4.11 64.00
  A 59.89 59.89 0.0 0 1 64.00 4.11
  A 59.89 59.89 0.0 0 1 123.89 64.00
  Z
  M 115.91 64.00
  A 51.91 51.91 0.0 0 0 64.00 12.09
  A 51.91 51.91 0.0 0 0 12.09 64.00
  A 51.91 51.91 0.0 0 0 64.00 115.91
  A 51.91 51.91 0.0 0 0 115.91 64.00
  Z"
/>
<path fill="#ffffff" d="
  M 111.89 64.00
  A 47.89 47.89 0.0 0 1 64.00 111.89
  A 47.89 47.89 0.0 0 1 16.11 64.00
  A 47.89 47.89 0.0 0 1 64.00 16.11
  A 47.89 47.89 0.0 0 1 111.89 64.00
  Z
  M 103.91 64.00
  A 39.91 39.91 0.0 0 0 64.00 24.09
  A 39.91 39.91 0.0 0 0 24.09 64.00
  A 39.91 39.91 0.0 0 0 64.00 103.91
  A 39.91 39.91 0.0 0 0 103.91 64.00
  Z"
/>
<path fill="#ffffff" d="
  M 69.44 70.06
  Q 67.53 68.26 64.40 68.03
  Q 62.65 67.91 62.60 67.90
  Q 55.49 66.96 51.57 61.94
  Q 47.86 57.18 48.24 50.86
  Q 48.80 41.60 58.94 36.93
  A 2.04 2.04 72.5 0 0 60.09 34.72
  Q 59.43 31.16 61.39 29.21
  Q 62.49 28.12 64.02 28.08
  Q 65.76 28.04 66.87 29.32
  Q 67.72 30.30 67.92 32.43
  Q 68.06 33.86 68.15 35.31
  A 0.60 0.60 0.6 0 0 68.69 35.86
  Q 72.51 36.26 74.25 36.00
  Q 78.39 35.39 79.69 38.56
  Q 80.74 41.13 78.87 42.75
  Q 77.74 43.73 75.33 43.88
  Q 70.04 44.22 66.00 44.00
  Q 59.85 43.67 57.35 47.80
  Q 55.16 51.43 56.81 55.35
  Q 58.60 59.63 64.25 60.00
  Q 71.57 60.48 76.07 65.68
  Q 80.74 71.08 79.57 78.22
  Q 77.95 88.10 68.98 91.01
  A 1.58 1.57 77.5 0 0 67.90 92.72
  Q 68.18 94.92 67.83 96.63
  Q 67.53 98.09 66.55 98.96
  Q 65.36 100.02 63.85 99.91
  Q 61.85 99.78 60.80 98.08
  Q 59.69 96.30 60.12 93.47
  A 1.24 1.24 4.7 0 0 58.91 92.05
  Q 56.46 92.01 53.61 91.97
  Q 50.71 91.93 49.31 90.83
  Q 46.72 88.79 49.07 85.41
  Q 50.05 84.00 51.78 84.00
  Q 56.99 84.00 61.64 84.00
  Q 65.52 84.00 67.23 83.20
  Q 69.12 82.33 70.40 80.64
  Q 71.60 79.05 71.89 76.99
  Q 72.45 72.90 69.44 70.06
  Z"
/>
</svg>
