<?xml version="1.0" encoding="UTF-8" standalone="no"?>
<!DOCTYPE svg PUBLIC "-//W3C//DTD SVG 1.1//EN" "http://www.w3.org/Graphics/SVG/1.1/DTD/svg11.dtd">
<svg xmlns="http://www.w3.org/2000/svg" version="1.1" viewBox="0 0 24 173">
<path fill="#ffffff" d="
  M 15.98 7.86
  Q 14.69 7.40 14.06 8.81
  Q 13.12 10.95 12.19 12.55
  Q 10.97 14.66 9.27 15.39
  Q 6.81 16.43 4.58 15.00
  Q 2.81 13.85 2.15 11.51
  Q 1.04 7.58 2.75 3.09
  C 2.90 2.70 3.39 2.56 3.71 2.83
  Q 4.92 3.82 6.27 3.97
  C 6.52 4.00 6.69 4.25 6.63 4.50
  Q 6.01 7.07 5.98 8.79
  Q 5.97 9.63 6.31 10.14
  Q 6.98 11.13 8.06 10.06
  Q 8.62 9.52 9.66 7.27
  Q 10.55 5.37 11.28 4.55
  Q 13.80 1.74 16.91 3.10
  Q 19.72 4.34 20.52 7.66
  Q 21.33 10.98 20.18 14.73
  C 20.03 15.23 19.62 15.62 19.10 15.72
  Q 14.59 16.66 16.00 14.00
  Q 17.25 11.65 16.56 8.55
  C 16.49 8.22 16.27 7.96 15.98 7.86
  Z"
/>
<path fill="#ffffff" d="
  M 19.42 22.11
  Q 22.82 27.07 19.31 32.56
  Q 17.72 35.06 14.00 35.05
  Q 8.28 35.05 2.56 34.95
  C 2.28 34.94 2.05 34.71 2.04 34.43
  L 1.94 30.43
  C 1.93 30.15 2.15 29.92 2.43 29.91
  L 13.95 29.69
  Q 16.58 29.63 16.78 27.08
  Q 17.01 24.19 13.75 24.12
  Q 8.38 24.00 2.75 24.00
  C 2.23 24.00 1.83 23.55 1.86 23.01
  L 2.06 19.57
  C 2.08 19.28 2.29 19.06 2.55 19.05
  Q 7.15 18.95 11.75 19.00
  Q 14.31 19.03 16.11 19.56
  Q 18.08 20.15 19.42 22.11
  Z"
/>
<path fill="#ffffff" d="
  M 7.54 54.26
  C 6.59 54.28 5.89 55.17 6.08 56.12
  Q 6.71 59.30 2.71 58.40
  C 2.30 58.31 2.00 57.94 2.01 57.53
  L 2.05 45.06
  C 2.05 44.78 2.27 44.55 2.56 44.52
  Q 3.65 44.42 4.72 44.27
  Q 6.83 43.98 5.97 47.34
  C 5.77 48.15 6.37 48.93 7.20 48.95
  Q 12.21 49.04 17.78 49.01
  Q 17.87 49.00 19.20 48.89
  Q 21.22 48.71 20.65 50.77
  Q 20.53 51.24 20.61 51.73
  Q 20.76 52.67 20.42 53.49
  C 20.30 53.76 20.02 53.93 19.69 53.94
  L 7.54 54.26
  Z"
/>
<path fill="#ffffff" d="
  M 16.67 66.09
  Q 16.92 63.90 16.17 61.71
  C 16.08 61.45 16.22 61.18 16.47 61.12
  Q 17.89 60.79 19.33 61.07
  C 19.63 61.13 19.88 61.35 19.99 61.65
  Q 21.26 65.08 20.75 68.25
  Q 20.06 72.51 16.67 74.12
  Q 14.14 75.33 10.21 74.91
  Q -0.19 73.80 2.27 61.64
  C 2.45 60.77 3.36 60.26 4.19 60.57
  L 6.24 61.32
  C 6.79 61.52 7.05 62.14 6.81 62.67
  Q 4.47 67.83 9.25 69.75
  Q 12.03 70.87 14.48 69.49
  Q 16.39 68.41 16.67 66.09
  Z"
/>
<path fill="#ffffff" d="
  M 17.29 83.32
  L 17.29 88.44
  C 17.29 88.79 17.47 89.08 17.74 89.18
  L 19.94 89.97
  C 20.31 90.11 20.57 90.34 20.57 90.55
  L 20.59 94.52
  C 20.59 95.01 20.07 95.34 19.56 95.18
  L 2.90 89.81
  C 2.28 89.61 1.86 89.09 1.87 88.53
  L 1.96 83.05
  C 1.97 82.78 2.20 82.52 2.54 82.41
  Q 10.80 79.79 18.99 76.96
  Q 21.27 76.18 20.66 78.28
  Q 20.52 78.76 20.63 79.24
  Q 21.41 82.59 17.81 82.80
  C 17.52 82.82 17.29 83.04 17.29 83.32
  Z
  M 12.86 84.63
  C 12.81 84.28 12.44 84.05 12.07 84.14
  L 7.08 85.33
  Q 5.08 85.81 7.01 86.42
  Q 8.92 87.03 10.69 87.39
  Q 10.79 87.41 11.77 87.74
  Q 13.48 88.31 12.86 84.63
  Z"
/>
<path fill="#ffffff" d="
  M 6.82 100.70
  L 19.64 100.75
  C 20.21 100.75 20.66 101.31 20.64 101.98
  L 20.54 105.45
  C 20.53 105.76 20.31 106.00 20.03 106.00
  L 6.64 106.00
  C 6.24 106.00 5.96 106.38 6.08 106.76
  Q 7.74 111.91 2.49 110.40
  C 2.20 110.32 1.99 110.05 2.00 109.75
  L 2.05 97.07
  C 2.06 96.76 2.25 96.49 2.54 96.41
  Q 4.14 95.97 5.77 96.37
  C 6.04 96.43 6.23 96.69 6.24 96.99
  L 6.29 100.20
  C 6.30 100.47 6.53 100.69 6.82 100.70
  Z"
/>
<path fill="#ffffff" d="
  M 13.94 117.66
  L 2.75 117.49
  C 2.38 117.48 2.08 117.27 2.10 117.02
  L 2.26 114.06
  C 2.28 113.64 2.66 113.31 3.12 113.30
  L 19.93 113.28
  C 20.22 113.28 20.46 113.52 20.46 113.81
  L 20.48 118.76
  C 20.48 119.28 20.20 119.76 19.75 120.01
  L 8.67 126.13
  C 8.39 126.29 8.24 126.54 8.33 126.71
  Q 8.40 126.85 8.59 126.94
  Q 8.72 127.00 8.92 126.99
  Q 13.31 126.64 17.72 126.73
  Q 17.83 126.73 19.28 126.63
  Q 21.21 126.50 20.65 128.52
  Q 20.53 128.98 20.61 129.48
  Q 20.91 131.25 18.97 131.10
  Q 17.60 131.00 17.53 131.00
  Q 10.36 131.00 2.56 131.00
  C 2.25 131.00 2.00 130.75 2.00 130.44
  L 2.00 125.00
  C 2.00 124.69 2.17 124.40 2.45 124.25
  L 14.01 117.93
  Q 14.49 117.67 13.94 117.66
  Z"
/>
<path fill="#ffffff" d="
  M 20.7651 144.5301
  C 20.74 149.03 17.08 152.65 12.5826 152.6274
  L 9.7226 152.6124
  C 5.23 152.59 1.60 148.93 1.6254 144.4299
  L 1.6349 142.6099
  C 1.66 138.11 5.32 134.49 9.8174 134.5126
  L 12.6774 134.5276
  C 17.17 134.55 20.80 138.21 20.7746 142.7101
  L 20.7651 144.5301
  Z
  M 16.8798 143.5679
  C 16.90 141.38 14.46 139.59 11.4246 139.5602
  C 8.39 139.53 5.92 141.29 5.9002 143.4721
  C 5.88 145.66 8.32 147.45 11.3554 147.4798
  C 14.39 147.51 16.86 145.75 16.8798 143.5679
  Z"
/>
<path fill="#ffffff" d="
  M 16.72 160.79
  Q 16.97 158.58 16.00 156.30
  C 15.89 156.04 16.08 155.76 16.35 155.76
  L 19.19 155.78
  C 19.49 155.78 19.77 155.97 19.90 156.27
  Q 22.22 161.57 19.61 165.81
  Q 18.00 168.44 14.87 169.37
  Q 11.67 170.32 8.56 169.44
  Q 4.13 168.18 2.39 164.35
  Q 0.61 160.41 2.81 155.42
  C 2.95 155.08 3.34 154.92 3.67 155.06
  L 6.30 156.14
  C 6.83 156.36 7.05 157.01 6.77 157.53
  Q 5.34 160.19 6.39 162.17
  Q 7.30 163.88 9.69 164.56
  Q 12.13 165.24 14.35 164.16
  Q 16.46 163.14 16.72 160.79
  Z"
/>
</svg>
