<?xml version="1.0" encoding="UTF-8" standalone="no"?>
<!DOCTYPE svg PUBLIC "-//W3C//DTD SVG 1.1//EN" "http://www.w3.org/Graphics/SVG/1.1/DTD/svg11.dtd">
<svg xmlns="http://www.w3.org/2000/svg" version="1.1" viewBox="0 0 512 512">
<path stroke="#ffffff" stroke-width="2.4" fill="none" stroke-linecap="butt" vector-effect="non-scaling-stroke" d="
  M 146.01 208.17
  C 146.01 208.10 145.96 208.05 145.89 208.05
  L 145.87 208.05
  C 145.80 208.05 145.75 208.10 145.75 208.17
  L 145.75 273.83
  C 145.75 273.90 145.80 273.95 145.87 273.95
  L 145.89 273.95
  C 145.96 273.95 146.01 273.90 146.01 273.83
  L 146.01 208.17"
/>
<path fill="#ffffff" d="
  M 294.05 198.18
  Q 321.27 198.29 347.63 198.26
  Q 356.27 198.25 356.35 198.26
  Q 361.30 199.15 363.50 204.50
  Q 364.17 206.14 364.10 210.92
  Q 364.02 217.01 364.02 217.06
  Q 364.16 244.56 363.80 272.06
  Q 363.74 276.69 362.47 278.67
  Q 360.37 281.94 355.75 282.00
  Q 325.38 282.42 293.94 282.24
  C 293.56 282.24 293.25 282.55 293.25 282.93
  Q 293.25 367.25 293.22 451.50
  Q 293.22 457.92 287.44 460.19
  Q 285.61 460.90 280.94 460.82
  Q 276.64 460.75 276.56 460.75
  Q 246.65 460.75 216.75 460.75
  Q 207.25 460.75 206.97 451.75
  Q 206.87 448.43 206.86 448.25
  Q 206.75 446.22 206.75 443.00
  Q 206.75 363.00 206.75 283.35
  C 206.75 282.88 206.37 282.50 205.90 282.50
  Q 180.00 282.50 154.75 282.46
  Q 148.39 282.45 146.39 277.87
  Q 145.50 275.83 145.50 269.51
  Q 145.50 242.29 145.50 215.07
  Q 145.50 206.66 146.03 204.99
  Q 147.91 199.02 156.25 199.25
  Q 167.84 199.56 206.32 199.07
  C 206.59 199.06 206.81 198.84 206.81 198.57
  Q 206.70 188.33 207.00 151.75
  Q 207.18 129.72 214.21 110.62
  Q 227.58 74.33 262.81 59.81
  Q 281.65 52.05 303.25 51.91
  Q 329.25 51.75 355.25 51.75
  Q 363.59 51.75 365.48 57.68
  Q 366.00 59.33 366.00 67.88
  Q 366.00 94.19 366.00 120.50
  Q 366.00 130.29 356.50 130.36
  Q 337.13 130.50 317.78 131.04
  Q 307.41 131.32 303.48 133.07
  Q 297.01 135.96 294.69 142.87
  Q 293.53 146.34 293.39 155.26
  Q 293.07 176.54 293.31 197.45
  C 293.32 197.85 293.65 198.18 294.05 198.18
  Z
  M 146.01 208.17
  C 146.01 208.10 145.96 208.05 145.89 208.05
  L 145.87 208.05
  C 145.80 208.05 145.75 208.10 145.75 208.17
  L 145.75 273.83
  C 145.75 273.90 145.80 273.95 145.87 273.95
  L 145.89 273.95
  C 145.96 273.95 146.01 273.90 146.01 273.83
  L 146.01 208.17
  Z"
/>
<rect fill="#ffffff" x="145.75" y="208.05" width="0.26" height="65.90" rx="0.12"/>
</svg>
