<?xml version="1.0" encoding="UTF-8" standalone="no"?>
<!DOCTYPE svg PUBLIC "-//W3C//DTD SVG 1.1//EN" "http://www.w3.org/Graphics/SVG/1.1/DTD/svg11.dtd">
<svg xmlns="http://www.w3.org/2000/svg" version="1.1" viewBox="0 0 42 564">
<path fill="#fefefe" d="
  M 13.80 19.82
  Q 13.71 23.92 13.74 28.01
  Q 13.74 28.08 13.87 29.48
  Q 14.05 31.47 12.14 31.42
  Q 10.16 31.36 9.84 31.37
  Q 8.50 31.40 7.27 30.89
  C 7.00 30.78 6.82 30.51 6.82 30.20
  L 6.76 11.00
  C 6.75 10.72 6.98 10.49 7.25 10.50
  L 37.82 10.68
  C 38.12 10.68 38.36 10.91 38.36 11.19
  L 38.42 18.17
  C 38.43 18.64 38.01 19.02 37.50 19.03
  L 14.31 19.29
  C 14.03 19.29 13.81 19.53 13.80 19.82
  Z"
/>
<path fill="#fefefe" d="
  M 38.7330 52.3819
  C 38.75 59.85 32.70 65.92 25.2267 65.9355
  L 20.1267 65.9444
  C 12.65 65.96 6.59 59.91 6.5731 52.4381
  L 6.5670 48.9381
  C 6.55 41.47 12.60 35.40 20.0733 35.3845
  L 25.1733 35.3756
  C 32.65 35.36 38.71 41.41 38.7269 48.8819
  L 38.7330 52.3819
  Z
  M 32.20 50.72
  C 32.20 47.01 27.97 44.01 22.75 44.01
  C 17.53 44.01 13.30 47.01 13.30 50.72
  C 13.30 54.43 17.53 57.43 22.75 57.43
  C 27.97 57.43 32.20 54.43 32.20 50.72
  Z"
/>
<path fill="#fefefe" d="
  M 14.32 94.41
  L 8.79 94.23
  C 8.27 94.22 7.81 93.82 7.64 93.24
  Q 6.64 89.79 6.46 86.44
  Q 6.26 82.75 7.43 79.70
  Q 10.72 71.11 21.50 70.75
  Q 27.83 70.54 32.41 73.48
  Q 36.98 76.41 38.32 82.10
  Q 39.84 88.55 36.94 95.34
  C 36.82 95.62 36.50 95.77 36.21 95.66
  L 31.02 93.73
  C 30.66 93.60 30.45 93.21 30.53 92.83
  Q 31.07 90.17 31.53 88.64
  Q 32.65 84.84 30.65 82.38
  Q 29.10 80.47 25.67 79.76
  Q 21.88 78.98 18.25 80.00
  Q 14.19 81.14 13.46 84.94
  Q 13.17 86.47 13.80 89.39
  Q 14.28 91.60 14.72 93.82
  C 14.78 94.13 14.58 94.42 14.32 94.41
  Z"
/>
<path fill="#fefefe" d="
  M 12.71 117.94
  L 12.60 108.95
  C 12.59 108.63 12.39 108.35 12.09 108.26
  L 7.97 107.05
  C 7.25 106.84 6.75 106.22 6.75 105.54
  L 6.75 98.20
  C 6.75 97.91 7.03 97.71 7.30 97.79
  L 37.96 107.65
  C 38.25 107.74 38.44 108.01 38.45 108.31
  L 38.50 118.47
  C 38.50 118.79 38.30 119.06 38.00 119.16
  L 7.66 129.28
  C 7.25 129.42 6.82 129.12 6.83 128.71
  L 6.99 120.81
  C 7.00 120.54 7.22 120.29 7.54 120.18
  L 12.22 118.62
  C 12.52 118.52 12.72 118.24 12.71 117.94
  Z
  M 19.55 115.94
  Q 19.04 117.80 21.52 116.90
  Q 26.89 114.93 32.32 113.79
  Q 33.68 113.50 32.33 113.19
  Q 26.76 111.92 21.31 110.30
  Q 18.94 109.60 19.64 112.92
  Q 19.96 114.44 19.55 115.94
  Z"
/>
<path fill="#fefefe" d="
  M 30.95 147.06
  L 7.74 147.00
  C 7.19 147.00 6.75 146.56 6.75 146.01
  L 6.75 139.49
  C 6.75 138.94 7.19 138.50 7.74 138.50
  L 30.95 138.44
  C 31.21 138.44 31.43 138.22 31.44 137.94
  L 31.65 131.43
  C 31.66 131.12 31.90 130.88 32.19 130.88
  L 37.71 130.80
  C 38.14 130.79 38.50 131.17 38.50 131.64
  L 38.50 154.01
  C 38.50 154.56 38.06 155.00 37.51 155.00
  L 32.24 155.00
  C 31.82 155.00 31.48 154.66 31.48 154.23
  L 31.45 147.56
  C 31.45 147.28 31.23 147.06 30.95 147.06
  Z"
/>
<path fill="#fefefe" d="
  M 19.18 168.04
  L 14.31 168.04
  C 14.03 168.04 13.81 168.27 13.81 168.56
  L 13.69 177.44
  C 13.69 177.72 13.46 177.94 13.18 177.95
  L 7.39 178.06
  C 7.09 178.07 6.84 177.83 6.84 177.54
  L 6.92 160.18
  C 6.92 159.90 7.15 159.67 7.44 159.67
  L 37.82 159.67
  C 38.10 159.67 38.33 159.90 38.33 160.19
  L 38.49 177.08
  C 38.50 177.59 38.08 178.01 37.56 178.00
  L 32.32 177.96
  C 32.04 177.95 31.81 177.72 31.81 177.44
  L 31.69 168.56
  C 31.69 168.27 31.46 168.04 31.18 168.04
  L 27.03 168.02
  C 26.74 168.01 26.50 168.25 26.50 168.55
  L 26.57 176.75
  C 26.57 177.16 26.24 177.50 25.84 177.50
  L 20.58 177.50
  C 20.11 177.50 19.73 177.11 19.72 176.62
  L 19.70 168.56
  C 19.70 168.27 19.47 168.04 19.18 168.04
  Z"
/>
<path fill="#fefefe" d="
  M 35.53 205.29
  Q 33.99 207.54 31.49 208.64
  Q 23.59 212.09 16.17 209.32
  Q 11.80 207.69 9.47 204.22
  Q 7.00 200.56 6.82 195.76
  Q 6.60 190.26 6.75 184.93
  C 6.76 184.41 7.17 184.00 7.69 183.98
  Q 23.30 183.45 37.82 184.16
  C 38.10 184.18 38.33 184.41 38.35 184.70
  Q 39.13 195.19 37.94 199.94
  Q 37.21 202.83 35.53 205.29
  Z
  M 13.97 192.76
  Q 13.33 196.92 15.56 199.37
  Q 17.40 201.39 21.14 201.74
  Q 23.81 201.99 26.42 201.43
  Q 29.39 200.78 30.54 198.62
  Q 31.84 196.19 31.41 192.76
  C 31.37 192.47 31.12 192.25 30.83 192.25
  L 14.56 192.25
  C 14.26 192.25 14.01 192.47 13.97 192.76
  Z"
/>
<rect fill="#fefefe" x="6.75" y="228.01" width="31.74" height="8.74" rx="0.79"/>
<path fill="#fefefe" d="
  M 17.45 265.73
  Q 15.88 266.55 17.66 266.52
  L 37.63 266.26
  C 38.11 266.25 38.50 266.65 38.50 267.14
  L 38.50 272.87
  C 38.50 273.36 38.11 273.75 37.63 273.75
  L 7.56 273.69
  C 7.27 273.69 7.03 273.48 7.00 273.19
  Q 6.35 268.13 6.99 263.06
  C 7.03 262.75 7.22 262.48 7.50 262.33
  Q 17.75 256.82 28.18 251.66
  Q 28.56 251.47 28.71 251.18
  C 28.82 250.97 28.61 250.71 28.32 250.71
  L 7.56 250.95
  C 7.24 250.96 6.97 250.73 6.97 250.45
  L 6.90 244.37
  C 6.89 243.89 7.32 243.50 7.85 243.50
  L 37.25 243.50
  C 37.94 243.50 38.50 244.06 38.50 244.75
  L 38.50 253.76
  C 38.50 254.38 38.16 254.94 37.61 255.23
  L 17.45 265.73
  Z"
/>
<path fill="#0097b2" d="
  M 31.88 296.72
  Q 34.90 297.67 38.28 299.14
  C 38.57 299.27 38.75 299.55 38.75 299.86
  L 38.75 309.63
  C 38.75 310.15 38.42 310.61 37.93 310.77
  L 7.56 320.72
  C 7.21 320.83 6.86 320.59 6.86 320.24
  L 6.99 312.06
  C 7.00 311.76 7.22 311.50 7.54 311.42
  L 11.71 310.32
  C 12.32 310.15 12.75 309.62 12.75 309.02
  L 12.75 300.63
  C 12.75 300.13 12.36 299.67 11.78 299.50
  L 7.44 298.21
  C 7.18 298.13 6.98 297.86 6.93 297.51
  Q 6.40 293.53 6.98 289.56
  C 7.02 289.30 7.29 289.13 7.55 289.21
  Q 19.74 292.90 31.88 296.72
  Z
  M 27.05 303.49
  Q 23.89 302.58 20.28 301.72
  C 19.97 301.64 19.66 301.89 19.67 302.22
  L 19.75 307.23
  C 19.76 307.79 20.28 308.19 20.80 308.05
  L 30.51 305.50
  Q 32.94 304.86 30.48 304.37
  Q 29.22 304.12 27.05 303.49
  Z"
/>
<path fill="#0097b2" d="
  M 17.69 333.27
  L 7.56 332.93
  C 7.24 332.92 6.99 332.71 6.98 332.45
  L 6.85 325.48
  C 6.84 324.94 7.32 324.50 7.91 324.50
  L 37.82 324.50
  C 38.36 324.50 38.78 324.95 38.75 325.49
  Q 38.39 331.24 38.41 337.00
  Q 38.42 340.66 36.71 343.58
  Q 35.00 346.48 31.63 347.41
  Q 25.26 349.16 21.03 343.16
  C 20.86 342.92 20.54 342.84 20.31 342.99
  L 8.20 350.74
  Q 6.75 351.67 6.75 350.01
  L 6.75 343.38
  C 6.75 342.38 7.30 341.47 8.18 341.00
  Q 12.60 338.66 17.00 336.00
  Q 18.41 335.15 18.28 333.80
  C 18.25 333.51 18.00 333.28 17.69 333.27
  Z
  M 28.96 338.87
  Q 32.85 338.54 31.92 333.68
  C 31.86 333.36 31.61 333.13 31.32 333.12
  L 25.88 333.08
  C 25.46 333.08 25.12 333.43 25.09 333.87
  Q 24.92 336.44 25.81 337.73
  Q 26.71 339.06 28.96 338.87
  Z"
/>
<path fill="#0097b2" d="
  M 14.31 372.96
  L 18.12 372.99
  C 18.47 373.00 18.75 372.70 18.76 372.32
  L 18.82 368.24
  C 18.83 367.83 19.17 367.50 19.60 367.50
  L 24.66 367.50
  C 24.95 367.50 25.20 367.73 25.23 368.02
  Q 25.80 374.00 25.18 380.47
  C 25.15 380.76 24.91 380.98 24.62 380.99
  L 9.25 381.26
  C 8.70 381.27 8.21 380.91 8.04 380.38
  Q 5.92 373.53 6.59 366.51
  Q 7.57 356.32 17.25 354.25
  Q 20.81 353.49 24.78 353.77
  Q 29.14 354.08 31.94 355.71
  Q 36.56 358.40 38.10 364.09
  Q 40.25 372.06 37.20 379.66
  C 37.05 380.05 36.61 380.23 36.23 380.08
  L 30.85 377.85
  C 30.58 377.74 30.44 377.44 30.53 377.17
  Q 31.52 374.11 31.74 371.25
  Q 32.00 367.74 30.48 365.54
  Q 28.84 363.17 25.85 362.63
  Q 23.79 362.27 20.64 362.49
  Q 12.31 363.08 13.73 372.44
  C 13.78 372.74 14.02 372.96 14.31 372.96
  Z"
/>
<path fill="#0097b2" d="
  M 13.99 396.82
  Q 13.41 401.17 13.92 405.41
  C 13.97 405.86 13.62 406.25 13.17 406.25
  L 7.66 406.25
  C 7.16 406.25 6.75 405.85 6.75 405.35
  L 6.82 389.25
  C 6.82 388.31 7.60 387.55 8.55 387.56
  L 37.81 387.69
  C 38.10 387.69 38.33 387.91 38.33 388.18
  L 38.48 405.06
  C 38.49 405.51 38.16 405.90 37.70 405.98
  Q 34.37 406.60 32.24 406.13
  C 31.94 406.06 31.72 405.80 31.71 405.50
  L 31.51 397.01
  C 31.50 396.69 31.28 396.43 31.01 396.43
  L 27.05 396.42
  C 26.81 396.42 26.61 396.71 26.61 397.06
  L 26.61 404.82
  C 26.61 405.11 26.39 405.36 26.08 405.44
  Q 23.20 406.12 20.30 405.54
  C 20.01 405.49 19.80 405.24 19.80 404.94
  L 19.76 396.81
  C 19.76 396.50 19.52 396.25 19.22 396.25
  L 14.57 396.29
  C 14.28 396.30 14.03 396.52 13.99 396.82
  Z"
/>
<path fill="#0097b2" d="
  M 28.18 419.34
  L 8.45 419.75
  C 7.53 419.77 6.78 419.04 6.77 418.13
  L 6.75 412.95
  C 6.75 412.43 7.18 412.00 7.72 412.00
  L 37.94 412.06
  C 38.22 412.06 38.44 412.29 38.45 412.57
  L 38.50 422.31
  C 38.50 422.89 38.16 423.44 37.62 423.72
  L 17.69 434.09
  Q 15.92 435.01 17.94 435.00
  L 37.82 434.92
  C 38.12 434.91 38.37 435.15 38.37 435.44
  L 38.44 441.15
  C 38.45 441.75 37.93 442.25 37.30 442.24
  L 7.45 442.01
  C 7.08 442.00 6.78 441.71 6.79 441.35
  L 6.98 431.44
  C 6.99 431.15 7.18 430.87 7.48 430.72
  Q 18.28 425.53 28.25 419.57
  Q 28.66 419.33 28.18 419.34
  Z"
/>
<path fill="#0097b2" d="
  M 30.93 463.31
  L 7.73 463.25
  C 7.19 463.25 6.75 462.82 6.75 462.28
  L 6.75 455.84
  C 6.75 455.24 7.24 454.75 7.84 454.75
  L 30.22 454.75
  C 30.94 454.75 31.53 454.13 31.55 453.35
  L 31.63 447.69
  C 31.64 447.36 31.88 447.10 32.18 447.09
  L 38.05 446.94
  C 38.30 446.93 38.50 447.16 38.50 447.45
  L 38.50 470.11
  C 38.50 470.58 38.14 470.96 37.71 470.95
  L 32.19 470.87
  C 31.90 470.86 31.66 470.62 31.65 470.31
  L 31.43 463.80
  C 31.42 463.53 31.20 463.31 30.93 463.31
  Z"
/>
<rect fill="#0097b2" x="6.75" y="475.50" width="31.76" height="8.50" rx="0.59"/>
<path fill="#0097b2" d="
  M 17.56 513.70
  L 37.73 513.74
  C 38.15 513.74 38.50 514.06 38.49 514.46
  L 38.36 520.32
  C 38.35 520.60 38.11 520.82 37.81 520.82
  L 7.58 521.19
  C 7.32 521.19 7.11 521.00 7.10 520.75
  L 6.75 510.98
  C 6.73 510.36 7.11 509.77 7.72 509.49
  Q 17.87 504.70 27.29 499.17
  Q 28.52 498.45 27.08 498.44
  L 7.43 498.33
  C 7.13 498.33 6.88 498.10 6.88 497.81
  L 6.82 492.04
  C 6.81 491.47 7.30 491.00 7.89 491.01
  L 37.81 491.18
  C 38.11 491.18 38.35 491.40 38.35 491.68
  L 38.44 501.03
  C 38.45 501.71 38.02 502.37 37.34 502.73
  L 17.50 513.43
  Q 17.02 513.69 17.56 513.70
  Z"
/>
<path fill="#0097b2" d="
  M 12.52 545.44
  Q 13.11 541.43 12.65 536.43
  C 12.60 535.90 12.18 535.44 11.58 535.26
  L 7.40 534.02
  C 7.10 533.93 6.90 533.64 6.89 533.31
  L 6.79 525.85
  C 6.78 525.28 7.36 524.87 7.92 525.05
  L 37.78 534.76
  C 38.34 534.94 38.71 535.44 38.70 535.98
  L 38.49 545.94
  C 38.48 546.23 38.27 546.49 37.96 546.60
  L 7.34 556.64
  C 7.05 556.73 6.75 556.52 6.75 556.21
  L 6.75 548.44
  C 6.75 547.90 7.16 547.41 7.74 547.25
  L 11.97 546.11
  C 12.26 546.03 12.47 545.77 12.52 545.44
  Z
  M 27.34 539.33
  Q 23.92 538.45 20.49 537.62
  C 20.21 537.55 19.94 537.73 19.93 537.98
  L 19.77 543.43
  C 19.76 543.72 20.03 543.93 20.31 543.86
  L 32.06 540.89
  Q 33.69 540.48 32.00 540.25
  Q 29.65 539.92 27.34 539.33
  Z"
/>
</svg>
