<?xml version="1.0" encoding="UTF-8" standalone="no"?>
<!DOCTYPE svg PUBLIC "-//W3C//DTD SVG 1.1//EN" "http://www.w3.org/Graphics/SVG/1.1/DTD/svg11.dtd">
<svg xmlns="http://www.w3.org/2000/svg" version="1.1" viewBox="0 0 678 222">
<path fill="#343235" d="
  M 89.30 96.28
  Q 89.64 106.53 89.43 116.50
  Q 89.34 120.58 89.99 124.59
  Q 90.84 129.83 96.01 130.93
  Q 103.29 132.49 105.75 125.75
  Q 106.04 124.96 106.33 121.92
  Q 106.50 120.19 106.49 118.06
  Q 106.46 107.11 106.56 96.60
  C 106.57 96.03 107.01 95.57 107.55 95.58
  L 118.94 95.76
  C 119.22 95.77 119.44 96.01 119.45 96.31
  Q 119.90 117.76 119.19 125.44
  Q 118.60 131.80 114.20 136.22
  Q 110.37 140.08 104.32 141.60
  Q 96.61 143.53 88.94 140.81
  Q 81.69 138.24 78.62 131.90
  Q 76.74 128.02 76.54 119.29
  Q 76.29 108.12 76.76 96.86
  C 76.78 96.43 77.11 96.08 77.53 96.07
  L 88.77 95.76
  C 89.05 95.75 89.29 95.98 89.30 96.28
  Z"
/>
<path fill="#343235" d="
  M 144.21 130.06
  Q 143.19 135.04 143.75 138.00
  Q 144.47 141.79 141.21 141.62
  Q 139.44 141.53 139.29 141.53
  Q 135.38 141.62 131.48 141.25
  C 131.07 141.21 130.75 140.86 130.75 140.44
  L 130.75 120.20
  C 130.75 119.64 131.21 119.19 131.77 119.21
  Q 143.64 119.60 154.25 118.75
  Q 157.00 118.53 158.09 114.95
  Q 159.60 109.96 156.46 107.62
  Q 154.64 106.26 150.23 106.11
  Q 141.59 105.80 132.79 106.26
  Q 130.76 106.37 130.77 104.37
  L 130.80 96.59
  C 130.80 95.99 131.30 95.50 131.92 95.50
  Q 140.75 95.50 149.25 95.52
  Q 154.45 95.53 159.47 96.87
  Q 165.76 98.56 169.07 103.36
  Q 172.25 107.97 171.87 113.80
  Q 171.38 121.53 164.04 126.50
  C 163.57 126.82 163.44 127.47 163.77 127.95
  L 171.91 139.98
  Q 172.73 141.19 171.26 141.29
  Q 165.16 141.67 159.50 141.06
  C 159.16 141.02 158.86 140.85 158.69 140.60
  L 152.31 131.43
  Q 150.96 129.49 149.31 129.48
  L 144.80 129.43
  C 144.53 129.43 144.29 129.69 144.21 130.06
  Z"
/>
<path fill="#373538" d="
  M 255.06 110.21
  L 242.71 140.38
  C 242.50 140.90 242.03 141.24 241.52 141.25
  L 230.50 141.49
  C 229.85 141.50 229.41 140.82 229.68 140.20
  L 249.10 96.51
  C 249.23 96.23 249.50 96.04 249.80 96.00
  Q 252.49 95.64 255.21 95.68
  Q 255.33 95.68 258.77 95.43
  Q 262.24 95.16 263.46 98.51
  Q 264.13 100.36 264.17 100.44
  Q 272.99 120.32 281.92 140.42
  C 282.07 140.77 281.84 141.17 281.46 141.20
  Q 275.12 141.84 269.32 141.26
  C 268.99 141.22 268.70 141.01 268.57 140.70
  Q 265.50 133.44 262.53 126.15
  Q 262.51 126.11 260.17 119.77
  Q 258.31 114.76 255.51 110.18
  Q 255.25 109.75 255.06 110.21
  Z"
/>
<path fill="#3a383b" d="
  M 418.31 107.06
  L 418.25 140.23
  C 418.25 140.93 417.68 141.50 416.98 141.50
  L 406.05 141.50
  C 405.61 141.50 405.25 141.14 405.25 140.70
  L 405.25 107.34
  C 405.25 106.74 404.76 106.25 404.16 106.25
  L 392.16 106.25
  C 391.66 106.25 391.25 105.84 391.25 105.34
  L 391.25 96.65
  C 391.25 96.02 391.76 95.51 392.38 95.51
  L 431.02 95.74
  C 431.56 95.75 432.00 96.21 432.01 96.78
  L 432.18 105.01
  C 432.19 105.54 431.78 105.98 431.26 106.00
  L 418.82 106.53
  C 418.54 106.54 418.31 106.78 418.31 107.06
  Z"
/>
<path fill="#3c3c3e" d="
  M 463.06 107.06
  L 463.00 140.38
  C 463.00 140.80 462.69 141.14 462.28 141.19
  Q 456.29 141.88 450.81 141.25
  C 450.50 141.21 450.26 140.99 450.19 140.70
  Q 449.82 139.13 449.97 137.55
  Q 450.22 134.99 450.21 134.44
  Q 449.89 121.40 450.01 107.16
  C 450.02 106.55 449.54 106.06 448.94 106.05
  L 437.30 106.01
  C 436.62 106.01 436.07 105.50 436.08 104.87
  L 436.25 96.31
  C 436.25 96.03 436.50 95.81 436.81 95.81
  L 475.77 95.50
  C 476.40 95.49 476.92 95.99 476.94 96.62
  Q 477.04 99.58 477.01 102.60
  Q 477.01 102.66 477.07 103.91
  Q 477.22 106.91 473.75 106.25
  Q 471.14 105.76 463.56 106.51
  C 463.28 106.54 463.06 106.78 463.06 107.06
  Z"
/>
<rect fill="#3c3c3e" x="484.25" y="95.49" width="13.00" height="46.00" rx="0.79"/>
<path fill="#414141" d="
  M 521.96 140.67
  C 521.95 140.98 521.71 141.23 521.41 141.24
  L 510.68 141.46
  C 509.89 141.47 509.25 140.81 509.25 139.98
  L 509.25 120.02
  C 509.25 119.58 509.61 119.22 510.06 119.23
  Q 521.51 119.43 531.75 119.00
  Q 533.64 118.92 535.24 117.37
  Q 536.54 116.10 536.99 114.14
  Q 537.98 109.71 534.63 107.52
  Q 532.73 106.27 528.60 106.15
  Q 519.33 105.90 510.06 105.94
  C 509.77 105.94 509.53 105.73 509.50 105.45
  Q 509.09 102.28 509.21 99.08
  Q 509.21 98.98 509.15 97.42
  Q 509.06 95.22 511.33 95.40
  Q 512.60 95.51 512.68 95.51
  Q 521.96 95.61 531.25 95.75
  Q 533.87 95.79 538.02 96.93
  Q 544.68 98.75 547.86 103.96
  Q 550.87 108.88 550.15 114.96
  Q 549.26 122.46 542.12 126.63
  C 541.76 126.84 541.66 127.31 541.90 127.64
  L 550.75 140.30
  Q 551.33 141.14 550.34 141.16
  L 538.74 141.48
  C 538.09 141.50 537.45 141.15 537.04 140.56
  Q 533.55 135.57 530.55 130.99
  Q 529.27 129.04 526.00 129.25
  Q 523.87 129.39 522.92 129.57
  C 522.64 129.62 522.44 129.88 522.42 130.19
  L 521.96 140.67
  Z"
/>
<rect fill="#444444" x="-18.06" y="-5.08" transform="translate(578.41,100.76) rotate(-0.2)" width="36.12" height="10.16" rx="0.79"/>
<path fill="#373538" d="
  M 209.28 107.97
  Q 208.08 105.20 204.75 105.25
  Q 193.62 105.40 182.97 105.02
  C 182.29 104.99 181.75 104.43 181.75 103.75
  L 181.75 96.74
  C 181.75 96.19 182.19 95.75 182.74 95.75
  Q 195.50 95.75 208.50 95.75
  Q 210.72 95.75 215.22 97.33
  Q 219.08 98.69 221.18 101.79
  Q 223.25 104.83 222.99 108.55
  Q 222.64 113.38 218.34 116.54
  C 217.81 116.93 217.86 117.73 218.42 118.05
  Q 226.90 122.92 224.69 132.69
  Q 223.82 136.53 219.26 138.82
  Q 214.55 141.18 209.25 141.37
  Q 195.87 141.85 183.95 141.32
  C 182.96 141.27 182.15 140.53 182.01 139.56
  Q 181.39 135.20 182.16 132.54
  C 182.24 132.25 182.51 132.05 182.81 132.04
  Q 196.78 131.39 204.75 131.75
  Q 207.11 131.86 208.91 131.35
  Q 211.05 130.75 211.71 128.71
  Q 212.81 125.27 208.75 123.50
  Q 207.25 122.84 204.35 122.91
  Q 201.23 122.99 201.15 122.99
  Q 191.86 122.92 182.97 122.76
  C 182.29 122.75 181.75 122.19 181.75 121.51
  L 181.75 114.84
  C 181.75 114.24 182.24 113.75 182.84 113.75
  Q 191.00 113.75 199.00 113.89
  Q 203.45 113.97 206.69 113.19
  Q 208.63 112.72 209.36 111.03
  Q 209.99 109.59 209.28 107.97
  Z"
/>
<path fill="#373538" d="
  M 288.55 97.29
  Q 288.65 95.42 290.72 95.58
  Q 292.65 95.72 292.80 95.72
  Q 295.81 95.66 298.81 95.90
  C 299.13 95.93 299.42 96.07 299.63 96.31
  Q 315.10 114.44 329.85 133.15
  Q 331.46 135.19 331.87 136.47
  Q 332.49 138.40 332.08 140.49
  C 332.00 140.90 331.67 141.20 331.26 141.25
  Q 326.41 141.84 322.23 141.28
  C 321.50 141.18 320.83 140.81 320.36 140.24
  Q 305.26 121.99 290.19 103.81
  Q 288.65 101.96 288.56 100.09
  Q 288.48 98.60 288.55 97.29
  Z"
/>
<path fill="#373538" d="
  M 319.20 98.90
  Q 319.37 97.66 319.60 96.42
  C 319.65 96.12 319.90 95.89 320.18 95.90
  L 331.25 95.95
  C 331.54 95.96 331.77 96.20 331.77 96.49
  L 332.01 117.73
  Q 332.02 119.03 331.13 118.05
  Q 325.53 111.88 320.87 105.62
  Q 319.61 103.93 319.31 102.49
  Q 318.94 100.73 319.20 98.90
  Z"
/>
<path fill="#3a383b" d="
  M 365.11 109.97
  Q 364.68 108.93 364.26 109.98
  L 352.40 139.56
  Q 351.66 141.41 349.80 141.40
  L 340.02 141.31
  C 339.27 141.30 338.80 140.48 339.12 139.76
  L 358.36 96.31
  C 358.51 95.97 358.86 95.75 359.24 95.75
  L 370.07 95.75
  C 370.78 95.75 371.43 96.17 371.72 96.82
  L 391.12 140.32
  C 391.35 140.85 390.98 141.44 390.41 141.44
  L 378.98 141.50
  C 378.42 141.50 377.90 141.15 377.68 140.61
  L 365.11 109.97
  Z"
/>
<rect fill="#444444" x="-18.09" y="-4.96" transform="translate(578.40,118.22) rotate(-0.1)" width="36.18" height="9.92" rx="0.99"/>
<path fill="#373538" d="
  M 288.70 121.27
  Q 288.71 120.32 288.52 119.58
  Q 288.30 118.73 288.72 118.45
  C 288.93 118.30 289.27 118.41 289.50 118.70
  Q 294.29 124.74 299.08 130.79
  Q 300.92 133.10 301.21 135.35
  Q 301.55 138.01 301.04 140.70
  C 300.98 140.99 300.74 141.21 300.44 141.25
  Q 294.77 141.90 289.45 141.24
  C 288.92 141.17 288.52 140.73 288.52 140.20
  L 288.70 121.27
  Z"
/>
<rect fill="#444444" x="560.25" y="131.25" width="36.24" height="10.18" rx="0.93"/>
</svg>
