<?xml version="1.0" encoding="UTF-8" standalone="no"?>
<!DOCTYPE svg PUBLIC "-//W3C//DTD SVG 1.1//EN" "http://www.w3.org/Graphics/SVG/1.1/DTD/svg11.dtd">
<svg xmlns="http://www.w3.org/2000/svg" version="1.1" viewBox="0 0 128 128">
<path fill="#ffffff" d="
  M 47.94 115.56
  Q 46.93 115.48 43.78 116.38
  Q 41.08 117.16 39.64 117.19
  Q 33.81 117.32 30.65 112.61
  Q 29.72 111.23 28.94 108.57
  Q 28.52 107.15 28.10 105.73
  Q 27.60 104.00 26.86 103.08
  Q 24.71 100.38 20.56 99.44
  Q 8.47 96.70 11.27 85.19
  Q 12.37 80.68 12.38 80.23
  Q 12.47 77.39 10.81 75.19
  Q 10.27 74.47 8.02 72.16
  Q 6.12 70.22 5.40 69.00
  Q 2.36 63.82 5.56 58.56
  Q 6.06 57.74 9.31 54.31
  Q 11.90 51.59 12.22 48.55
  Q 12.29 47.91 11.21 42.54
  Q 9.12 32.18 18.93 29.01
  Q 24.05 27.36 24.81 26.83
  Q 27.59 24.90 28.55 21.49
  Q 29.88 16.82 29.96 16.64
  Q 33.99 8.42 43.75 11.50
  Q 47.76 12.76 50.93 11.67
  Q 52.45 11.14 54.55 9.15
  Q 55.64 8.11 56.73 7.08
  Q 57.94 5.94 59.14 5.38
  Q 66.99 1.73 72.56 8.19
  Q 75.82 11.96 79.96 12.20
  Q 80.54 12.23 85.81 11.07
  Q 93.89 9.28 97.90 16.50
  Q 98.60 17.78 99.23 20.13
  Q 99.97 22.91 100.44 23.81
  Q 102.22 27.25 105.06 27.94
  Q 109.97 29.13 111.19 29.81
  Q 119.79 34.62 116.36 44.33
  Q 114.30 50.15 118.45 54.13
  Q 119.34 54.97 119.40 55.03
  Q 128.06 64.07 120.18 72.37
  Q 116.79 75.93 116.33 77.00
  Q 115.07 79.89 116.05 83.15
  Q 117.06 86.51 117.07 86.55
  Q 118.26 93.66 112.50 97.42
  Q 111.17 98.29 108.70 99.02
  Q 105.68 99.91 104.75 100.25
  Q 102.91 100.93 101.58 102.46
  Q 100.63 103.56 99.91 105.79
  Q 99.39 107.42 98.91 109.06
  Q 98.33 111.01 97.58 112.16
  Q 92.78 119.47 82.94 116.06
  Q 77.75 114.26 73.78 118.54
  Q 72.86 119.53 72.82 119.56
  Q 63.37 128.93 54.44 118.56
  Q 52.16 115.92 47.94 115.56
  Z
  M 44.85 20.00
  Q 42.21 19.51 39.94 18.93
  Q 37.24 18.24 36.75 20.99
  Q 34.54 33.57 22.61 36.42
  Q 20.12 37.01 19.57 37.52
  Q 18.27 38.74 19.19 41.31
  Q 23.16 52.47 14.49 60.67
  Q 14.45 60.71 13.61 61.42
  Q 10.57 64.01 14.06 66.94
  Q 22.25 73.80 19.73 84.57
  Q 19.71 84.64 18.94 86.73
  Q 18.34 88.37 19.07 89.68
  Q 19.70 90.82 22.01 91.33
  Q 34.23 94.05 36.80 106.74
  Q 37.51 110.26 41.31 108.81
  Q 48.87 105.94 55.90 109.73
  Q 57.35 110.52 59.20 112.24
  Q 60.91 113.83 62.29 115.02
  Q 64.41 116.85 66.22 114.72
  Q 72.70 107.07 82.07 107.80
  Q 83.19 107.89 85.35 108.53
  Q 87.17 109.07 88.67 109.19
  Q 90.84 109.35 91.21 107.21
  Q 93.54 93.90 106.56 91.32
  Q 110.24 90.59 109.04 87.26
  Q 108.65 86.15 108.63 86.10
  Q 105.30 74.75 114.82 66.14
  Q 116.84 64.31 115.01 62.29
  Q 113.64 60.79 111.86 58.73
  Q 110.00 56.59 109.20 54.84
  Q 106.24 48.31 108.82 41.14
  Q 110.21 37.27 106.00 36.50
  Q 94.18 34.33 91.56 22.61
  Q 91.02 20.21 90.43 19.60
  Q 89.16 18.32 86.69 19.19
  Q 75.01 23.30 66.74 13.76
  Q 63.88 10.48 61.06 14.06
  Q 56.94 19.31 49.81 20.24
  Q 47.64 20.53 44.85 20.00
  Z"
/>
<path fill="#ffffff" d="
  M 59.91 47.98
  A 11.91 11.91 0.0 0 1 48.00 59.89
  A 11.91 11.91 0.0 0 1 36.09 47.98
  A 11.91 11.91 0.0 0 1 48.00 36.07
  A 11.91 11.91 0.0 0 1 59.91 47.98
  Z
  M 51.96 47.99
  A 3.95 3.95 0.0 0 0 48.01 44.04
  A 3.95 3.95 0.0 0 0 44.06 47.99
  A 3.95 3.95 0.0 0 0 48.01 51.94
  A 3.95 3.95 0.0 0 0 51.96 47.99
  Z"
/>
<rect fill="#ffffff" x="-3.97" y="-26.58" transform="translate(64.01,63.99) rotate(45.0)" width="7.94" height="53.16" rx="3.92"/>
<path fill="#ffffff" d="
  M 91.91 79.99
  A 11.91 11.91 0.0 0 1 80.00 91.90
  A 11.91 11.91 0.0 0 1 68.09 79.99
  A 11.91 11.91 0.0 0 1 80.00 68.08
  A 11.91 11.91 0.0 0 1 91.91 79.99
  Z
  M 83.82 79.99
  A 3.82 3.82 0.0 0 0 80.00 76.17
  A 3.82 3.82 0.0 0 0 76.18 79.99
  A 3.82 3.82 0.0 0 0 80.00 83.81
  A 3.82 3.82 0.0 0 0 83.82 79.99
  Z"
/>
</svg>
