<?xml version="1.0" encoding="UTF-8" standalone="no"?>
<!DOCTYPE svg PUBLIC "-//W3C//DTD SVG 1.1//EN" "http://www.w3.org/Graphics/SVG/1.1/DTD/svg11.dtd">
<svg xmlns="http://www.w3.org/2000/svg" version="1.1" viewBox="0 0 128 128">
<path fill="#ffffff" d="
  M 7.94 91.44
  L 8.06 23.94
  Q 8.07 20.90 11.06 20.39
  Q 14.12 19.87 18.25 19.88
  Q 48.35 19.99 78.44 20.00
  Q 84.29 20.00 84.52 20.06
  Q 88.20 20.95 87.97 26.47
  A 1.47 1.47 -88.9 0 0 89.44 28.00
  Q 94.88 28.00 99.50 28.01
  Q 104.12 28.02 107.82 30.72
  Q 112.34 34.03 111.94 39.75
  Q 111.73 42.66 112.53 45.45
  Q 115.56 55.98 118.60 66.51
  Q 119.77 70.57 119.88 74.64
  Q 120.12 82.91 120.07 91.19
  A 0.66 0.66 9.5 0 0 120.53 91.83
  Q 123.55 92.84 123.94 95.31
  Q 124.41 98.32 121.96 99.45
  Q 120.78 100.00 117.96 100.00
  Q 114.96 100.00 111.92 100.00
  A 1.01 1.01 13.4 0 0 111.02 100.55
  Q 109.05 104.36 105.91 106.29
  Q 102.77 108.23 98.79 107.84
  Q 92.24 107.19 88.96 100.47
  A 0.84 0.83 76.9 0 0 88.21 100.00
  L 39.92 100.00
  A 1.03 1.03 -76.1 0 0 39.01 100.55
  Q 37.05 104.37 33.91 106.30
  Q 30.77 108.23 26.79 107.84
  Q 20.24 107.19 16.96 100.47
  A 0.84 0.83 76.9 0 0 16.21 100.00
  Q 12.00 100.00 8.01 99.76
  Q 3.96 99.52 4.00 96.00
  Q 4.04 92.83 7.45 92.04
  A 0.64 0.61 -7.2 0 0 7.94 91.44
  Z
  M 17.19 91.03
  Q 18.87 87.44 22.20 85.57
  Q 25.29 83.84 29.07 84.17
  Q 35.88 84.77 39.10 91.48
  A 0.81 0.78 76.7 0 0 39.81 91.94
  L 79.43 91.94
  A 0.51 0.51 0.0 0 0 79.94 91.43
  L 80.00 28.68
  A 0.68 0.68 -0.4 0 0 79.32 28.00
  L 16.56 28.00
  A 0.56 0.56 0.0 0 0 16.00 28.56
  L 16.00 90.76
  Q 16.00 93.59 17.19 91.03
  Z
  M 93.60 75.09
  Q 92.00 73.83 92.00 71.25
  Q 92.00 57.88 92.00 44.50
  Q 92.00 42.35 93.33 41.14
  Q 94.30 40.25 96.43 40.10
  Q 99.61 39.88 103.28 40.03
  A 0.71 0.71 89.6 0 0 104.02 39.28
  Q 103.92 37.60 102.89 36.80
  Q 102.20 36.27 100.50 36.17
  Q 94.92 35.86 88.64 36.02
  A 0.66 0.66 -0.9 0 0 88.00 36.68
  L 88.00 90.77
  Q 88.00 93.67 89.16 91.01
  Q 91.22 86.30 95.96 84.74
  Q 100.38 83.29 104.51 84.93
  Q 108.87 86.68 111.00 91.50
  Q 112.00 93.77 112.00 91.25
  L 112.00 76.99
  A 1.00 0.99 0.0 0 0 111.00 76.00
  Q 104.21 76.04 97.22 75.96
  Q 94.68 75.93 93.60 75.09
  Z
  M 105.27 49.08
  Q 104.13 47.45 100.59 48.27
  A 0.75 0.75 -6.3 0 0 100.00 49.00
  L 100.00 67.34
  A 0.66 0.66 45.0 0 0 100.66 68.00
  L 109.96 68.00
  A 0.63 0.63 -8.6 0 0 110.56 67.19
  Q 108.34 59.96 106.34 52.83
  Q 105.30 49.12 105.27 49.08
  Z
  M 31.95 96.01
  A 3.94 3.94 0.0 0 0 28.01 92.07
  A 3.94 3.94 0.0 0 0 24.07 96.01
  A 3.94 3.94 0.0 0 0 28.01 99.95
  A 3.94 3.94 0.0 0 0 31.95 96.01
  Z
  M 103.95 96.00
  A 3.95 3.95 0.0 0 0 100.00 92.05
  A 3.95 3.95 0.0 0 0 96.05 96.00
  A 3.95 3.95 0.0 0 0 100.00 99.95
  A 3.95 3.95 0.0 0 0 103.95 96.00
  Z"
/>
</svg>
