<?xml version="1.0" encoding="UTF-8" standalone="no"?>
<!DOCTYPE svg PUBLIC "-//W3C//DTD SVG 1.1//EN" "http://www.w3.org/Graphics/SVG/1.1/DTD/svg11.dtd">
<svg xmlns="http://www.w3.org/2000/svg" version="1.1" viewBox="0 0 512 512">
<path fill="#fdfffe" d="
  M 413.93 142.05
  Q 437.09 139.07 459.39 129.30
  Q 460.32 128.89 459.76 129.74
  Q 442.98 155.08 418.47 173.01
  C 418.20 173.21 418.03 173.50 417.99 173.82
  Q 417.82 175.31 417.99 176.80
  Q 418.26 179.04 418.26 179.73
  Q 418.68 236.70 394.30 288.06
  Q 376.96 324.58 348.86 353.61
  Q 315.93 387.63 272.94 405.19
  Q 235.43 420.50 193.75 422.56
  Q 116.78 426.36 51.92 385.80
  Q 50.54 384.94 52.16 385.10
  Q 119.97 391.67 174.42 350.80
  Q 175.30 350.13 174.20 350.07
  Q 143.52 348.50 121.64 329.37
  Q 104.39 314.29 97.22 292.54
  C 97.15 292.32 97.33 292.10 97.57 292.13
  Q 115.75 294.53 133.45 290.74
  Q 134.95 290.42 133.45 290.07
  Q 114.83 285.68 100.19 274.18
  Q 92.43 268.08 86.08 260.05
  Q 68.17 237.36 67.57 207.42
  C 67.56 207.11 67.89 206.90 68.17 207.05
  Q 84.91 216.18 104.42 217.02
  Q 105.40 217.06 104.61 216.47
  Q 87.61 203.77 77.71 185.05
  Q 66.57 163.97 68.51 140.77
  Q 69.25 131.97 72.11 122.95
  Q 74.91 114.09 79.27 106.10
  C 79.56 105.57 80.29 105.50 80.68 105.96
  Q 122.69 156.06 183.25 178.75
  Q 214.90 190.61 251.68 192.41
  C 251.94 192.43 252.15 192.19 252.10 191.94
  Q 244.30 146.19 274.53 114.91
  Q 281.76 107.43 290.00 102.33
  Q 301.17 95.41 313.94 92.17
  Q 323.45 89.75 333.73 89.75
  Q 368.82 89.76 395.01 115.37
  C 395.50 115.86 396.21 116.06 396.89 115.91
  Q 423.80 109.96 448.14 96.29
  Q 448.97 95.82 448.67 96.74
  Q 439.45 124.60 413.67 141.35
  Q 412.27 142.26 413.93 142.05
  Z"
/>
</svg>
