<?xml version="1.0" encoding="UTF-8" standalone="no"?>
<!DOCTYPE svg PUBLIC "-//W3C//DTD SVG 1.1//EN" "http://www.w3.org/Graphics/SVG/1.1/DTD/svg11.dtd">
<svg xmlns="http://www.w3.org/2000/svg" version="1.1" viewBox="0 0 512 512">
<path fill="#ffffff" d="
  M 403.06 398.31
  Q 388.92 413.01 373.31 423.82
  Q 320.29 460.55 256.50 460.75
  Q 195.58 460.94 143.85 427.33
  C 143.58 427.16 143.26 427.11 142.97 427.20
  L 63.04 450.32
  Q 61.90 450.65 62.32 449.54
  L 89.73 377.21
  C 89.95 376.63 89.87 375.98 89.51 375.47
  Q 42.72 308.25 53.25 227.64
  Q 54.56 217.65 56.95 207.99
  Q 73.38 141.80 125.49 98.31
  Q 133.30 91.79 141.47 86.27
  Q 179.36 60.68 224.69 53.69
  Q 265.62 47.37 305.85 57.37
  Q 315.45 59.75 324.97 63.20
  Q 383.21 84.32 420.25 133.81
  Q 426.34 141.94 431.43 150.38
  Q 452.96 186.05 458.75 227.50
  Q 464.43 268.15 453.85 308.21
  Q 440.26 359.67 403.06 398.31
  Z
  M 213.30 313.83
  Q 226.30 326.25 240.70 337.07
  Q 258.22 350.24 277.91 359.87
  Q 291.44 366.49 306.18 369.59
  Q 313.14 371.05 320.25 371.02
  Q 331.31 370.96 339.73 365.14
  Q 342.04 363.54 351.36 354.40
  Q 357.03 348.84 362.65 343.23
  Q 366.60 339.28 368.22 335.88
  Q 373.28 325.19 368.26 314.93
  Q 366.32 310.94 360.49 305.08
  Q 347.44 291.95 334.20 279.00
  Q 329.52 274.41 326.55 272.92
  Q 321.89 270.59 316.75 270.75
  Q 305.11 271.12 299.23 280.48
  Q 299.20 280.53 296.35 286.84
  Q 292.80 294.73 284.31 298.05
  Q 277.37 300.75 270.24 298.52
  Q 264.21 296.63 259.31 293.94
  Q 243.57 285.29 231.47 272.08
  Q 223.69 263.59 219.31 256.32
  Q 214.11 247.70 211.67 237.71
  Q 210.53 233.04 211.75 229.25
  Q 214.97 219.30 224.35 215.11
  Q 230.00 212.59 230.01 212.58
  Q 238.53 207.54 240.00 197.50
  Q 240.89 191.44 238.51 185.94
  Q 236.98 182.39 231.75 177.00
  Q 208.72 153.30 202.25 147.50
  Q 190.84 137.26 177.57 142.72
  Q 174.34 144.05 170.75 147.43
  Q 160.42 157.13 150.44 167.20
  Q 143.06 174.65 141.75 184.50
  Q 140.03 197.38 143.87 210.83
  Q 149.79 231.56 160.98 249.99
  Q 177.37 276.99 199.14 299.71
  Q 205.92 306.78 213.30 313.83
  Z"
/>
</svg>
