<?xml version="1.0" encoding="UTF-8" standalone="no"?>
<!DOCTYPE svg PUBLIC "-//W3C//DTD SVG 1.1//EN" "http://www.w3.org/Graphics/SVG/1.1/DTD/svg11.dtd">
<svg xmlns="http://www.w3.org/2000/svg" version="1.1" viewBox="0 0 512 512">
<path stroke="#feffff" stroke-width="2.4" fill="none" stroke-linecap="butt" vector-effect="non-scaling-stroke" d="
  M 202.01 199.42
  C 202.01 199.35 201.96 199.30 201.89 199.30
  L 201.87 199.30
  C 201.80 199.30 201.75 199.35 201.75 199.42
  L 201.75 304.84
  C 201.75 304.91 201.80 304.96 201.87 304.96
  L 201.89 304.96
  C 201.96 304.96 202.01 304.91 202.01 304.84
  L 202.01 199.42"
/>
<path fill="#feffff" d="
  M 460.73 324.51
  C 460.73 367.30 426.04 401.99 383.25 401.99
  L 128.73 401.99
  C 85.94 401.99 51.25 367.30 51.25 324.51
  L 51.25 186.99
  C 51.25 144.20 85.94 109.51 128.73 109.51
  L 383.25 109.51
  C 426.04 109.51 460.73 144.20 460.73 186.99
  L 460.73 324.51
  Z
  M 255.87 224.33
  Q 229.55 208.91 202.98 193.44
  Q 202.25 193.02 202.25 193.86
  L 202.25 318.32
  Q 202.25 318.99 202.83 318.65
  L 309.36 256.29
  C 309.56 256.17 309.56 255.88 309.36 255.76
  Q 282.36 239.85 255.87 224.33
  Z
  M 202.01 199.42
  C 202.01 199.35 201.96 199.30 201.89 199.30
  L 201.87 199.30
  C 201.80 199.30 201.75 199.35 201.75 199.42
  L 201.75 304.84
  C 201.75 304.91 201.80 304.96 201.87 304.96
  L 201.89 304.96
  C 201.96 304.96 202.01 304.91 202.01 304.84
  L 202.01 199.42
  Z"
/>
<rect fill="#feffff" x="201.75" y="199.30" width="0.26" height="105.66" rx="0.12"/>
</svg>
